<svg width="12" height="12" viewBox="0 0 12 12" fill="none" xmlns="http://www.w3.org/2000/svg">
<path d="M5.29 0.289999C5.19627 0.382962 5.12188 0.493562 5.07111 0.615421C5.02034 0.737281 4.9942 0.867986 4.9942 0.999998C4.9942 1.13201 5.02034 1.26272 5.07111 1.38457C5.12188 1.50643 5.19627 1.61703 5.29 1.71L8.59 5L1 5C0.734783 5 0.480429 5.10535 0.292893 5.29289C0.105357 5.48043 -2.7404e-07 5.73478 -2.62447e-07 6C-2.50854e-07 6.26521 0.105357 6.51957 0.292893 6.7071C0.48043 6.89464 0.734783 7 1 7L8.59 7L5.29 10.29C5.1017 10.4783 4.99591 10.7337 4.99591 11C4.99591 11.2663 5.1017 11.5217 5.29 11.71C5.4783 11.8983 5.7337 12.0041 6 12.0041C6.2663 12.0041 6.5217 11.8983 6.71 11.71L11.71 6.71C11.801 6.61489 11.8724 6.50275 11.92 6.38C11.9729 6.2603 12.0002 6.13087 12.0002 6C12.0002 5.86913 11.9729 5.7397 11.92 5.62C11.8724 5.49725 11.801 5.3851 11.71 5.29L6.71 0.289999C6.61704 0.196271 6.50644 0.121875 6.38458 0.0711057C6.26272 0.0203368 6.13201 -0.00580052 6 -0.00580051C5.86799 -0.0058005 5.73728 0.0203369 5.61542 0.0711057C5.49356 0.121875 5.38296 0.196271 5.29 0.289999Z" fill="#262833"/>
</svg>