<svg width="27" height="34" viewBox="0 0 27 34" fill="none" xmlns="http://www.w3.org/2000/svg">
<path d="M26.8844 3.28497L26.9999 30.6C27.0104 32.4098 25.5192 33.9058 23.7024 33.9163L3.44461 33.9999C1.62782 34.0104 0.126076 32.5249 0.115575 30.715L5.54942e-05 3.40004C-0.0104462 1.5902 1.4808 0.0942116 3.29759 0.0837479L23.5554 5.36867e-05C25.3827 -0.0104062 26.8844 1.47512 26.8844 3.28497Z" fill="#43454D"/>
<path d="M23.3767 20.8603C23.3767 21.0068 23.3032 21.1428 23.1667 21.216C22.9776 21.3206 22.7361 21.2369 22.6311 21.0486C22.337 20.4837 21.7804 19.7096 20.8353 19.2702C19.6276 18.7052 18.3149 18.8622 18.2099 19.1028C18.1784 19.1656 18.3044 19.3957 18.3779 19.5422C18.5669 19.9083 18.8295 20.4209 18.6299 21.0172C18.4304 21.6031 17.9158 21.8856 17.6638 22.0216C16.036 22.9212 11.7828 23.2142 9.66147 22.2831C8.95786 21.9692 8.53779 21.5508 8.41177 21.0277C8.28574 20.4942 8.50628 20.0548 8.68481 19.6991C8.83184 19.4062 8.89484 19.2597 8.84233 19.176C8.6218 18.8099 7.26708 18.8203 6.1959 19.3434C5.25075 19.7932 4.70467 20.5674 4.41062 21.1428C4.3161 21.3311 4.07456 21.4148 3.88553 21.3102C3.6965 21.216 3.61248 20.9754 3.7175 20.7871C4.06406 20.1071 4.71516 19.1865 5.85985 18.6425C6.99403 18.0985 8.94735 17.8369 9.52494 18.7785C9.81899 19.2492 9.58796 19.7096 9.39893 20.0652C9.26241 20.3372 9.12588 20.5988 9.18889 20.8499C9.2729 21.1951 9.67197 21.4357 9.98702 21.5717C11.8353 22.3877 15.8575 22.1366 17.2857 21.3416C17.5272 21.2056 17.7898 21.0486 17.8843 20.7662C17.9788 20.5046 17.8633 20.2536 17.6743 19.8979C17.4957 19.5526 17.2962 19.1656 17.4957 18.7576C17.9158 17.8788 19.8166 17.9311 21.1713 18.5588C22.3265 19.0923 22.9776 20.0129 23.3347 20.6929C23.3662 20.7348 23.3767 20.7976 23.3767 20.8603Z" fill="#E3ECE6"/>
<path d="M10.3756 22.0948L10.4071 29.1667C10.4071 29.3864 10.2286 29.5643 10.0186 29.5643C9.79804 29.5643 9.61952 29.3864 9.61952 29.1772L9.58801 22.1052C9.58801 21.8855 9.76654 21.7077 9.97657 21.7077C10.1971 21.6972 10.3756 21.8751 10.3756 22.0948Z" fill="#E3ECE6"/>
<path d="M17.475 22.0634L17.5065 29.1354C17.5065 29.355 17.328 29.5329 17.118 29.5329C16.8974 29.5329 16.7189 29.355 16.7189 29.1458L16.6874 22.0738C16.6874 21.8541 16.8659 21.6763 17.0759 21.6763C17.286 21.6763 17.475 21.8437 17.475 22.0634Z" fill="#E3ECE6"/>
<path d="M23.3455 12.6167C23.3455 12.6794 23.335 12.7422 23.3035 12.7945C22.9569 13.4745 22.3058 14.3951 21.1611 14.9391C19.8169 15.5877 17.9161 15.6505 17.4855 14.7717C17.286 14.3637 17.4855 13.9767 17.6535 13.6314C17.8321 13.2757 17.9476 13.0247 17.8531 12.7631C17.748 12.4702 17.433 12.3028 17.244 12.1982C15.8052 11.4241 11.7831 11.2044 9.94528 12.0308C9.63023 12.1773 9.23116 12.4179 9.15765 12.7631C9.10514 12.9723 8.89511 13.1084 8.68508 13.056C8.47504 13.0037 8.33852 12.7945 8.39103 12.5853C8.51705 12.0622 8.92661 11.6333 9.63022 11.3194C11.7411 10.3674 15.9943 10.629 17.6325 11.5077C17.8846 11.6437 18.4097 11.9262 18.6092 12.5016C18.8192 13.0979 18.5567 13.6105 18.3677 13.9767C18.2941 14.1231 18.1786 14.3637 18.1996 14.416C18.3151 14.6567 19.6279 14.7927 20.825 14.2173C21.7702 13.7674 22.3163 12.9933 22.6103 12.4179C22.7049 12.2296 22.9464 12.1459 23.1354 12.2505C23.2614 12.3342 23.3455 12.4702 23.3455 12.6167Z" fill="#E3ECE6"/>
<path d="M8.76896 14.2486C8.76896 14.416 8.66395 14.5625 8.49592 14.6253C5.96501 15.4726 4.00118 13.5163 3.67563 12.8782C3.57061 12.6899 3.65463 12.4493 3.84366 12.3446C4.03269 12.24 4.27423 12.3237 4.37924 12.512C4.52627 12.7945 6.09102 14.5939 8.24387 13.872C8.45391 13.7988 8.67445 13.9139 8.74796 14.1231C8.75846 14.1649 8.76896 14.2068 8.76896 14.2486Z" fill="#E3ECE6"/>
<path d="M10.3023 4.42529L10.3338 11.4973C10.3338 11.717 10.1552 11.8948 9.94521 11.8948C9.72468 11.8948 9.54615 11.717 9.54615 11.5077L9.51465 4.43575C9.51465 4.21606 9.69317 4.03821 9.90321 4.03821C10.1237 4.02775 10.3023 4.2056 10.3023 4.42529Z" fill="#E3ECE6"/>
<path d="M17.4013 4.39391L17.4328 11.4659C17.4328 11.6856 17.2543 11.8634 17.0442 11.8634C16.8237 11.8634 16.6452 11.6856 16.6452 11.4764L16.6136 4.40438C16.6136 4.18469 16.7922 4.00684 17.0022 4.00684C17.2227 3.99638 17.4013 4.17422 17.4013 4.39391Z" fill="#E3ECE6"/>
</svg>
