<svg width="15" height="14" viewBox="0 0 15 14" fill="none" xmlns="http://www.w3.org/2000/svg">
<path d="M13.3334 6.16667H8.33337V1.16667C8.33337 0.945652 8.24558 0.73369 8.0893 0.57741C7.93302 0.42113 7.72105 0.333332 7.50004 0.333332C7.27903 0.333332 7.06707 0.42113 6.91079 0.57741C6.7545 0.73369 6.66671 0.945652 6.66671 1.16667V6.16667H1.66671C1.44569 6.16667 1.23373 6.25446 1.07745 6.41074C0.921172 6.56702 0.833374 6.77898 0.833374 7C0.833374 7.22101 0.921172 7.43297 1.07745 7.58925C1.23373 7.74553 1.44569 7.83333 1.66671 7.83333H6.66671V12.8333C6.66671 13.0543 6.7545 13.2663 6.91079 13.4226C7.06707 13.5789 7.27903 13.6667 7.50004 13.6667C7.72105 13.6667 7.93302 13.5789 8.0893 13.4226C8.24558 13.2663 8.33337 13.0543 8.33337 12.8333V7.83333H13.3334C13.5544 7.83333 13.7663 7.74553 13.9226 7.58925C14.0789 7.43297 14.1667 7.22101 14.1667 7C14.1667 6.77898 14.0789 6.56702 13.9226 6.41074C13.7663 6.25446 13.5544 6.16667 13.3334 6.16667Z" fill="white"/>
</svg>
