<svg width="56" height="17" viewBox="0 0 56 17" fill="none" xmlns="http://www.w3.org/2000/svg">
<path d="M52.372 0.300674L48.9098 0.300674C47.8317 0.300674 47.0336 0.601282 46.5567 1.6586L39.9019 16.7513H44.608C44.608 16.7513 45.3854 14.7196 45.5513 14.2842H51.294C51.4287 14.8647 51.833 16.7513 51.833 16.7513H56.0001L52.372 0.300674ZM46.847 10.9153C47.2202 9.97201 48.6195 6.31287 48.6195 6.31287C48.6195 6.3025 49.0031 5.34885 49.2208 4.74763L49.5214 6.16774C49.5214 6.16774 50.3818 10.086 50.558 10.9257H46.847V10.9153Z" fill="#262833"/>
<path d="M33.9208 4.86161C33.9104 5.63905 34.8744 6.14697 36.45 6.90368C39.0311 8.08538 40.2336 9.49515 40.2128 11.3817C40.1817 14.7921 37.1238 17 32.397 17C30.386 16.9793 28.4476 16.575 27.4006 16.1189L28.033 12.4287L28.6135 12.6982C30.075 13.3098 31.0391 13.5586 32.8324 13.5586C34.1177 13.5586 35.4964 13.0506 35.5067 11.9519C35.5171 11.2262 34.9263 10.708 33.1848 9.89942C31.4744 9.11161 29.225 7.79514 29.2458 5.43173C29.2665 2.23905 32.397 2.28882e-05 36.8232 2.28882e-05C38.5647 2.28882e-05 39.9641 0.362826 40.8451 0.694533L40.2336 4.26039L39.8293 4.0738C39 3.7421 37.9323 3.42075 36.4708 3.44149C34.7397 3.44149 33.9208 4.17746 33.9208 4.86161Z" fill="#262833"/>
<path d="M27.4006 0.290298L24.5915 16.7409H20.1134L22.9122 0.290298L27.4006 0.290298Z" fill="#262833"/>
<path d="M11.2921 8.75919C9.79944 4.95492 6.22322 1.79333 0.80188 0.476872L0.864072 0.145164L7.81955 0.145164C8.76284 0.176262 9.51954 0.476873 9.77868 1.48236L11.2921 8.75919Z" fill="#262833"/>
<path d="M21.1086 0.300674L14.0391 16.7306H9.30186L5.29028 3.01652C8.17199 4.86164 10.6287 7.79518 11.4994 9.83726L11.9763 11.5373L16.3714 0.311043L21.1086 0.311043V0.300674Z" fill="#262833"/>
</svg>
